<svg xmlns="http://www.w3.org/2000/svg" fill="none" viewBox="0 0 48 48" id="Diversity-4-Fill--Streamline-Outlined-Fill-Material">
  <desc>
    Diversity 4 Fill Streamline Icon: https://streamlinehq.com
  </desc>
  <path fill="#000000" d="m24.75 44 3.3 -3c4.0333 -3.6667 6.7 -6.4333 8 -8.3 1.3 -1.8667 1.95 -3.85 1.95 -5.95 0 -0.9 -0.1417 -1.725 -0.425 -2.475S36.9167 22.7667 36.45 22H41c0.8333 0 1.5417 0.2917 2.125 0.875 0.5833 0.5833 0.875 1.2917 0.875 2.125v19H24.75ZM4 44V25c0 -0.8333 0.28333 -1.5417 0.85 -2.125C5.41667 22.2917 6.13333 22 7 22h4.55c-0.5 0.7 -0.8833 1.45 -1.15 2.25 -0.2667 0.8 -0.4 1.6333 -0.4 2.5 0 2.1 0.6333 4.0667 1.9 5.9 1.2667 1.8333 3.95 4.6167 8.05 8.35l3.3 3H4Zm34 -24c-1.7 0 -3.125 -0.575 -4.275 -1.725C32.575 17.125 32 15.7 32 14c0 -1.6667 0.575 -3.0833 1.725 -4.25C34.875 8.58333 36.3 8 38 8c1.6667 0 3.0833 0.58333 4.25 1.75C43.4167 10.9167 44 12.3333 44 14c0 1.7 -0.5833 3.125 -1.75 4.275C41.0833 19.425 39.6667 20 38 20Zm-14 -2c-1.9667 0 -3.625 -0.675 -4.975 -2.025C17.675 14.625 17 12.9667 17 11c0 -1.93333 0.675 -3.58333 2.025 -4.95C20.375 4.68333 22.0333 4 24 4c1.9333 0 3.5833 0.68333 4.95 2.05C30.3167 7.41667 31 9.06667 31 11c0 1.9667 -0.6833 3.625 -2.05 4.975C27.5833 17.325 25.9333 18 24 18Zm-11 8.75c0 1.5333 0.7417 3.2417 2.225 5.125 1.4833 1.8833 4.4083 4.8083 8.775 8.775 4.3 -3.9 7.2083 -6.7917 8.725 -8.675C34.2417 30.0917 35 28.35 35 26.75c0 -1.6 -0.5417 -2.9583 -1.625 -4.075C32.2917 21.5583 30.9667 21 29.4 21c-0.9 0 -1.725 0.1917 -2.475 0.575S25.5 22.4333 24.9 23l-0.9 0.9 -0.95 -0.9c-0.6 -0.5333 -1.275 -1 -2.025 -1.4 -0.75 -0.4 -1.5583 -0.6 -2.425 -0.6 -1.6 0 -2.9333 0.5583 -4 1.675S13 25.15 13 26.75ZM10 20c-1.7 0 -3.125 -0.575 -4.275 -1.725C4.575 17.125 4 15.7 4 14c0 -1.6667 0.575 -3.0833 1.725 -4.25C6.875 8.58333 8.3 8 10 8c1.6667 0 3.0833 0.58333 4.25 1.75C15.4167 10.9167 16 12.3333 16 14c0 1.7 -0.5833 3.125 -1.75 4.275C13.0833 19.425 11.6667 20 10 20Z" stroke-width="1"></path>
</svg>