<svg xmlns="http://www.w3.org/2000/svg" fill="none" viewBox="0 0 48 48" id="Handshake-Fill--Streamline-Outlined-Fill-Material">
  <desc>
    Handshake Fill Streamline Icon: https://streamlinehq.com
  </desc>
  <path fill="#000000" d="M24.2 42c-0.5667 0 -1.05 -0.1965 -1.45 -0.5895 -0.4 -0.3927 -0.6 -0.8795 -0.6 -1.4605 0 -0.2333 0.05 -0.475 0.15 -0.725 0.1 -0.25 0.25 -0.475 0.45 -0.675L32 29.3l-1.05 -1.05 -9.2365 9.25c-0.2007 0.2 -0.4182 0.35 -0.6525 0.45 -0.2343 0.1 -0.4853 0.15 -0.753 0.15 -0.569 0 -1.0458 -0.1917 -1.4305 -0.575 -0.385 -0.3833 -0.5775 -0.8583 -0.5775 -1.425 0 -0.3333 0.05 -0.6083 0.15 -0.825 0.1 -0.2167 0.2333 -0.4083 0.4 -0.575l9.25 -9.25 -1.05 -1.05 -9.25 9.2c-0.2 0.2 -0.4167 0.35 -0.65 0.45 -0.2333 0.1 -0.5 0.15 -0.8 0.15 -0.5333 0 -1 -0.2 -1.4 -0.6 -0.4 -0.4 -0.6 -0.8667 -0.6 -1.4 0 -0.2667 0.05 -0.5167 0.15 -0.75 0.1 -0.2333 0.25 -0.45 0.45 -0.65l9.25 -9.25 -1.05 -1.05 -9.2 9.25c-0.1667 0.1667 -0.3667 0.3 -0.6 0.4 -0.2333 0.1 -0.5167 0.15 -0.85 0.15 -0.5667 0 -1.0417 -0.1868 -1.425 -0.5605 -0.3833 -0.3737 -0.575 -0.8368 -0.575 -1.3895 0 -0.2667 0.05 -0.5167 0.15 -0.75 0.1 -0.2333 0.25 -0.45 0.45 -0.65L22.25 15.8l6.35 6.35c0.3667 0.3667 0.775 0.675 1.225 0.925 0.45 0.25 0.9917 0.375 1.625 0.375 1.0667 0 1.9667 -0.3417 2.7 -1.025 0.7333 -0.6833 1.1 -1.6083 1.1 -2.775 0 -0.4667 -0.0917 -0.925 -0.275 -1.375 -0.1833 -0.45 -0.4917 -0.8917 -0.925 -1.325L25.1 8l0.3 -0.35c0.5667 -0.53333 1.2 -0.94167 1.9 -1.225C28 6.14167 28.7 6 29.4 6c0.8667 0 1.6667 0.14167 2.4 0.425 0.7333 0.28333 1.4 0.725 2 1.325l8.45 8.5c0.6 0.6 1.0417 1.2667 1.325 2 0.2833 0.7333 0.425 1.5833 0.425 2.55 0 0.6667 -0.15 1.3417 -0.45 2.025 -0.3 0.6833 -0.7333 1.3083 -1.3 1.875L25.6 41.4c-0.2667 0.2667 -0.5 0.4333 -0.7 0.5 -0.2 0.0667 -0.4333 0.1 -0.7 0.1ZM8.45 27.4l-2.7 -2.7c-0.56667 -0.5333 -1 -1.1667 -1.3 -1.9 -0.3 -0.7333 -0.45 -1.5 -0.45 -2.3 0 -0.8667 0.16667 -1.6667 0.5 -2.4 0.33333 -0.7333 0.75 -1.35 1.25 -1.85l8.45 -8.5c0.5333 -0.53333 1.1667 -0.95833 1.9 -1.275 0.7333 -0.31667 1.45 -0.475 2.15 -0.475 0.9 0 1.7 0.125 2.4 0.375s1.3833 0.70833 2.05 1.375L32.95 18c0.3 0.3 0.5083 0.5833 0.625 0.85 0.1167 0.2667 0.175 0.5333 0.175 0.8 0 0.6667 -0.2167 1.2167 -0.65 1.65s-0.9833 0.65 -1.65 0.65c-0.3 0 -0.6083 -0.075 -0.925 -0.225 -0.3167 -0.15 -0.625 -0.375 -0.925 -0.675l-7.4 -7.4L8.45 27.4Z" stroke-width="1"></path>
</svg>