<svg xmlns="http://www.w3.org/2000/svg" fill="none" viewBox="0 0 48 48" id="Self-Care-Fill--Streamline-Outlined-Fill-Material">
  <desc>
    Self Care Fill Streamline Icon: https://streamlinehq.com
  </desc>
  <path fill="#000000" d="M33 46c-0.2833 0 -0.5208 -0.0958 -0.7125 -0.2875C32.0958 45.5208 32 45.2833 32 45s0.0958 -0.5208 0.2875 -0.7125C32.4792 44.0958 32.7167 44 33 44h7v-3h-7c-0.2833 0 -0.5208 -0.0958 -0.7125 -0.2875C32.0958 40.5208 32 40.2833 32 40s0.0958 -0.5208 0.2875 -0.7125C32.4792 39.0958 32.7167 39 33 39h7v-3h-7c-0.2833 0 -0.5208 -0.0958 -0.7125 -0.2875C32.0958 35.5208 32 35.2833 32 35s0.0958 -0.5208 0.2875 -0.7125C32.4792 34.0958 32.7167 34 33 34h7v-3h-7c-0.2833 0 -0.5208 -0.0958 -0.7125 -0.2875C32.0958 30.5208 32 30.2833 32 30s0.0958 -0.5208 0.2875 -0.7125C32.4792 29.0958 32.7167 29 33 29h7v-3h-7c-0.2833 0 -0.5208 -0.0958 -0.7125 -0.2875C32.0958 25.5208 32 25.2833 32 25s0.0958 -0.5208 0.2875 -0.7125C32.4792 24.0958 32.7167 24 33 24h7v-3h-7c-0.2833 0 -0.5208 -0.0958 -0.7125 -0.2875C32.0958 20.5208 32 20.2833 32 20s0.0958 -0.5208 0.2875 -0.7125C32.4792 19.0958 32.7167 19 33 19h8c0.825 0 1.5313 0.2937 2.119 0.881 0.5873 0.5877 0.881 1.294 0.881 2.119v21c0 0.825 -0.2937 1.5312 -0.881 2.1185C42.5313 45.7062 41.825 46 41 46h-8ZM15.991 31c2.4727 0 4.5923 -1.1812 6.359 -3.5435 1.7667 -2.3623 2.65 -5.179 2.65 -8.45 0 -3.271 -0.8803 -6.0898 -2.641 -8.4565C20.598 8.18333 18.4813 7 16.009 7c-2.4727 0 -4.5923 1.18117 -6.359 3.5435 -1.76667 2.3623 -2.65 5.179 -2.65 8.45 0 3.271 0.88033 6.0898 2.641 8.4565 1.761 2.3667 3.8777 3.55 6.35 3.55ZM16 46c-1.3 0 -2.3583 -0.4833 -3.175 -1.45 -0.8167 -0.9667 -1.1417 -2.0833 -0.975 -3.35l0.85 -7.75c-2.5333 -0.9 -4.61667 -2.675 -6.25 -5.325C4.81667 25.475 4 22.4333 4 19c0 -4.1667 1.16667 -7.7083 3.5 -10.625C9.83333 5.45833 12.6667 4 16 4c3.3333 0 6.1667 1.45833 8.5 4.375C26.8333 11.2917 28 14.8333 28 19c0 3.4333 -0.825 6.475 -2.475 9.125 -1.65 2.65 -3.7417 4.425 -6.275 5.325l0.9 7.75c0.1667 1.2667 -0.1583 2.3833 -0.975 3.35C18.3583 45.5167 17.3 46 16 46Z" stroke-width="1"></path>
</svg>