<svg xmlns="http://www.w3.org/2000/svg" fill="none" viewBox="0 0 48 48" id="Group-Work-Fill--Streamline-Sharp-Fill-Material">
  <desc>
    Group Work Fill Streamline Icon: https://streamlinehq.com
  </desc>
  <path fill="#000000" d="M19.35 32c1.0333 0 1.9 -0.357 2.6 -1.071 0.7 -0.714 1.05 -1.5723 1.05 -2.575 0 -1.0027 -0.35 -1.8623 -1.05 -2.579 -0.7 -0.7167 -1.5583 -1.075 -2.575 -1.075 -1.0167 0 -1.8833 0.357 -2.6 1.071 -0.7167 0.714 -1.075 1.5723 -1.075 2.575 0 1.0027 0.3573 1.8623 1.072 2.579 0.715 0.7167 1.5743 1.075 2.578 1.075Zm9.296 0c1.0027 0 1.8623 -0.357 2.579 -1.071 0.7167 -0.714 1.075 -1.5723 1.075 -2.575 0 -1.0027 -0.357 -1.8623 -1.071 -2.579 -0.714 -0.7167 -1.5723 -1.075 -2.575 -1.075 -1.0027 0 -1.8623 0.357 -2.579 1.071 -0.7167 0.714 -1.075 1.5723 -1.075 2.575 0 1.0027 0.357 1.8623 1.071 2.579 0.714 0.7167 1.5723 1.075 2.575 1.075Zm-4.65 -9.35c1.0027 0 1.8623 -0.35 2.579 -1.05 0.7167 -0.7 1.075 -1.5583 1.075 -2.575 0 -1.0167 -0.357 -1.8833 -1.071 -2.6 -0.714 -0.7167 -1.5723 -1.075 -2.575 -1.075 -1.0027 0 -1.8623 0.3573 -2.579 1.072 -0.7167 0.715 -1.075 1.5743 -1.075 2.578 0 1.0333 0.357 1.9 1.071 2.6 0.714 0.7 1.5723 1.05 2.575 1.05ZM24.0135 44c-2.758 0 -5.3497 -0.525 -7.775 -1.575 -2.4257 -1.05 -4.5468 -2.4833 -6.3635 -4.3 -1.81667 -1.8167 -3.25 -3.939 -4.3 -6.367C4.525 29.33 4 26.7357 4 23.975s0.525 -5.355 1.575 -7.783c1.05 -2.428 2.48333 -4.542 4.3 -6.342 1.8167 -1.8 3.939 -3.225 6.367 -4.275C18.67 4.525 21.2643 4 24.025 4s5.355 0.525 7.783 1.575c2.428 1.05 4.542 2.475 6.342 4.275 1.8 1.8 3.225 3.9167 4.275 6.35C43.475 18.6333 44 21.2288 44 23.9865c0 2.758 -0.525 5.3497 -1.575 7.775 -1.05 2.4257 -2.475 4.5438 -4.275 6.3545 -1.8 1.8103 -3.9167 3.2437 -6.35 4.3C29.3667 43.472 26.7712 44 24.0135 44Z" stroke-width="1"></path>
</svg>