<svg xmlns="http://www.w3.org/2000/svg" fill="none" viewBox="0 0 48 48" id="Location-Off-Fill--Streamline-Rounded-Fill-Material">
  <desc>
    Location Off Fill Streamline Icon: https://streamlinehq.com
  </desc>
  <path fill="#000000" d="M23.9999 43c-0.3667 0 -0.725 -0.0583 -1.075 -0.175s-0.6583 -0.3083 -0.925 -0.575c-1.4 -1.2667 -2.9167 -2.725 -4.55 -4.375 -1.6333 -1.65 -3.15 -3.425 -4.55 -5.325 -1.4 -1.9 -2.5667 -3.8833 -3.5 -5.95 -0.93333 -2.0667 -1.4 -4.1333 -1.4 -6.2 0 -1.2667 0.10834 -2.4583 0.325 -3.575 0.21667 -1.1167 0.54167 -2.175 0.975 -3.175l-6.95 -7c-0.3 -0.3 -0.45 -0.65 -0.45 -1.05s0.15 -0.75 0.45 -1.05c0.3 -0.3 0.65834 -0.45 1.075 -0.45 0.41667 0 0.775 0.15 1.075 0.45l38.25 38.2c0.3 0.3 0.4417 0.6583 0.425 1.075 -0.0167 0.4167 -0.175 0.775 -0.475 1.075 -0.3 0.3 -0.65 0.45 -1.05 0.45s-0.75 -0.15 -1.05 -0.45l-8.6 -8.6c-0.8667 0.9667 -1.7917 1.95 -2.775 2.95 -0.9833 1 -2.0583 2 -3.225 3 -0.2667 0.2667 -0.575 0.4583 -0.925 0.575 -0.35 0.1167 -0.7083 0.175 -1.075 0.175Zm0 -39c4.2333 0 7.9583 1.48333 11.175 4.45 3.2167 2.9667 4.825 6.95 4.825 11.95 0 1.4333 -0.2417 2.9 -0.725 4.4 -0.4833 1.5 -1.2083 3.0833 -2.175 4.75 -0.3 0.5333 -0.75 0.8333 -1.35 0.9 -0.6 0.0667 -1.1167 -0.1167 -1.55 -0.55l-7.6 -7.6c0.2667 -0.3 0.4833 -0.6417 0.65 -1.025 0.1667 -0.3833 0.25 -0.8083 0.25 -1.275 0 -0.5 -0.0833 -0.9583 -0.25 -1.375 -0.1667 -0.4167 -0.4167 -0.7917 -0.75 -1.125 -0.3333 -0.3333 -0.7083 -0.5833 -1.125 -0.75 -0.4167 -0.1667 -0.875 -0.25 -1.375 -0.25 -0.4667 0 -0.8917 0.0833 -1.275 0.25 -0.3833 0.1667 -0.725 0.3833 -1.025 0.65l-7.3 -7.3c-0.4667 -0.46667 -0.675 -1 -0.625 -1.6 0.05 -0.6 0.3083 -1.08333 0.775 -1.45 1.3667 -0.96667 2.8583 -1.71667 4.475 -2.25 1.6167 -0.53333 3.275 -0.8 4.975 -0.8Z" stroke-width="1"></path>
</svg>