<svg xmlns="http://www.w3.org/2000/svg" fill="none" viewBox="0 0 48 48" id="Menstrual-Health-Fill--Streamline-Rounded-Fill-Material">
  <desc>
    Menstrual Health Fill Streamline Icon: https://streamlinehq.com
  </desc>
  <path fill="#000000" d="M8.8 35.7499c-0.16667 0.1 -0.35 0.1416 -0.55 0.125 -0.2 -0.0167 -0.38333 -0.1084 -0.55 -0.275 -1.2 -1.7 -2.11667 -3.5334 -2.75 -5.5 -0.63333 -1.9667 -0.95 -4 -0.95 -6.1V7.99987c0 -0.63334 0.275 -1.08334 0.825 -1.35 0.55 -0.26667 1.075 -0.21667 1.575 0.15l7.8 5.85003c0.2667 0.2 0.4167 0.4666 0.45 0.8 0.0333 0.3333 -0.0333 0.6333 -0.2 0.9 -1.5 2.4333 -2.8667 4.9333 -4.1 7.5 -1.23333 2.5666 -1.85 5.2833 -1.85 8.15 0 0.7666 0.05 1.5333 0.15 2.3 0.1 0.7666 0.26667 1.5166 0.5 2.25 0.06667 0.2666 0.06667 0.5083 0 0.725 -0.06667 0.2166 -0.18333 0.375 -0.35 0.475Zm15.2 6.75c-3.4667 0 -6.4167 -1.2167 -8.85 -3.65 -2.4333 -2.4334 -3.65 -5.3834 -3.65 -8.85 0 -2.9334 0.9583 -6.2334 2.875 -9.9 1.9167 -3.6667 4.5083 -7.5667 7.775 -11.70003 0.4667 -0.6 1.0833 -0.90834 1.85 -0.925 0.7667 -0.01667 1.3833 0.275 1.85 0.875 3.2333 4.10003 5.8167 8.00003 7.75 11.70003 1.9333 3.7 2.9 7.0166 2.9 9.95 0 3.4666 -1.2167 6.4166 -3.65 8.85 -2.4333 2.4333 -5.3833 3.65 -8.85 3.65Zm15.15 -6.7c-0.1667 -0.1334 -0.2917 -0.3084 -0.375 -0.525 -0.0833 -0.2167 -0.0583 -0.4584 0.075 -0.725 0.2333 -0.7334 0.4 -1.4834 0.5 -2.25 0.1 -0.7667 0.15 -1.5334 0.15 -2.3 0 -2.8667 -0.6167 -5.5834 -1.85 -8.15 -1.2333 -2.5667 -2.6 -5.0667 -4.1 -7.5 -0.1667 -0.2667 -0.2333 -0.5667 -0.2 -0.9 0.0333 -0.3334 0.1833 -0.6 0.45 -0.8l7.8 -5.85003c0.5 -0.36667 1.025 -0.41667 1.575 -0.15 0.55 0.26666 0.825 0.71666 0.825 1.35V23.9999c0 2.1 -0.3167 4.1333 -0.95 6.1 -0.6333 1.9666 -1.55 3.8 -2.75 5.5 -0.1667 0.2 -0.3583 0.3166 -0.575 0.35 -0.2167 0.0333 -0.4083 -0.0167 -0.575 -0.15Z" stroke-width="1"></path>
</svg>