<svg xmlns="http://www.w3.org/2000/svg" viewBox="0 0 256 256" fill="#000000" id="Baby-Fill--Streamline-Phosphor-Fill">
  <desc>
    Baby Fill Streamline Icon: https://streamlinehq.com
  </desc>
  <path d="M135.4803 2.6199c-1.719 -0.0901 -3.3558 0.7421 -4.2959 2.1841 -12.429 18.7883 -12.791 36.0561 -12.791 36.3095 0.0242 6.1322 5.6854 10.688 11.6809 9.4002 4.5151 -1.0815 7.6808 -5.1438 7.6263 -9.7863 0.1949 -5.5781 5.0658 -9.829 10.6189 -9.2674 5.0195 0.5827 8.7778 4.8787 8.6883 9.9311 -0.1255 22.294 -24.3378 36.092 -43.5823 24.8364 -8.9314 -5.2238 -14.3975 -14.8155 -14.3393 -25.1622 0 -0.7602 0.1086 -13.0082 6.5645 -28.9608 1.3815 -3.4493 -1.4889 -7.1006 -5.1669 -6.5725 -0.1248 0.018 -0.2489 0.0408 -0.3719 0.0684C41.4457 19.0763 0.5696 72.2537 2.6348 132.4123c2.329 66.4408 56.9079 119.8734 123.385 120.9595 96.596 1.4795 158.5701 -102.164 111.5535 -186.5584 -20.8461 -37.4184 -59.337 -61.6206 -102.093 -64.1935ZM70.1255 127.8872c0 -11.147 12.067 -18.1139 21.7206 -12.5404 9.6535 5.5735 9.6535 19.5073 0 25.0808 -2.2012 1.2708 -4.6986 1.9399 -7.2402 1.94 -7.9976 0.0003 -14.4804 -6.4828 -14.4804 -14.4804Zm96.8617 66.0909c-23.8342 14.858 -54.0462 14.858 -77.8804 0 -6.2887 -3.9665 -5.9254 -13.2533 0.6541 -16.7163 3.0535 -1.6072 6.7325 -1.4633 9.6511 0.3776 17.5384 10.885 39.7316 10.885 57.2699 0 6.2888 -3.9665 14.5131 0.3623 14.8038 7.7917 0.1349 3.448 -1.5799 6.7061 -4.4986 8.547Zm4.5009 -51.6105c-11.147 0.0005 -18.1137 -12.0662 -12.5407 -21.72 5.5731 -9.6539 19.5069 -9.6545 25.0808 -0.0011 1.2711 2.2014 1.9403 4.6987 1.9403 7.2407 0 7.9971 -6.4833 14.48 -14.4804 14.4804Z" stroke-width="1"></path>
</svg>