<svg xmlns="http://www.w3.org/2000/svg" fill="none" viewBox="0 0 48 48" id="Shield-With-Heart-Fill--Streamline-Outlined-Fill-Material">
  <desc>
    Shield With Heart Fill Streamline Icon: https://streamlinehq.com
  </desc>
  <path fill="#000000" d="M24 31.1002c2.9667 -2.7 4.875 -4.5917 5.725 -5.675 0.85 -1.0833 1.275 -2.1742 1.275 -3.2725 0 -1.0683 -0.3792 -1.9775 -1.1375 -2.7275s-1.6625 -1.125 -2.7125 -1.125c-0.6333 0 -1.225 0.125 -1.775 0.375 -0.55 0.25 -1.0083 0.5917 -1.375 1.025 -0.352 -0.4377 -0.8065 -0.7803 -1.3635 -1.028 -0.557 -0.248 -1.158 -0.372 -1.803 -0.372 -1.0557 0 -1.9585 0.3792 -2.7085 1.1375S17 21.1002 17 22.1502c0 0.5333 0.0738 1.0382 0.2215 1.5145 0.1477 0.4767 0.4727 1.035 0.975 1.675 0.5023 0.6403 1.2107 1.4113 2.125 2.313 0.914 0.902 2.1402 2.0512 3.6785 3.4475Zm0 12.85c-4.6667 -1.1667 -8.5 -3.875 -11.5 -8.125S8 26.9169 8 21.8502v-11.9l16 -6 16 6v11.9c0 5.0667 -1.5 9.725 -4.5 13.975s-6.8333 6.9583 -11.5 8.125Z" stroke-width="1"></path>
</svg>