<svg xmlns="http://www.w3.org/2000/svg" fill="none" viewBox="0 0 48 48" id="Swords-Fill--Streamline-Outlined-Fill-Material">
  <desc>
    Swords Fill Streamline Icon: https://streamlinehq.com
  </desc>
  <path fill="#000000" d="m38.45 43.5998 -6.2 -6.2 -4.4 4.4 -2.15 -2.15c-0.5667 -0.5667 -0.85 -1.2667 -0.85 -2.1 0 -0.8333 0.2833 -1.5333 0.85 -2.1l9.95 -9.95c0.5667 -0.5667 1.2667 -0.85 2.1 -0.85 0.8333 0 1.5333 0.2833 2.1 0.85l2.15 2.15 -4.4 4.4 6.15 6.2c0.3 0.3 0.45 0.65 0.45 1.05s-0.15 0.75 -0.45 1.05l-3.2 3.25c-0.3 0.3 -0.65 0.45 -1.05 0.45s-0.75 -0.15 -1.05 -0.45Zm5.55 -31.8 -22.65 22.65 0.95 1c0.5667 0.5667 0.85 1.2667 0.85 2.1 0 0.8333 -0.2833 1.5333 -0.85 2.1l-2.15 2.15 -4.4 -4.4 -6.2 6.2c-0.3 0.3 -0.65 0.45 -1.05 0.45s-0.75 -0.15 -1.05 -0.45l-3.25 -3.25c-0.3 -0.3 -0.45 -0.65 -0.45 -1.05s0.15 -0.75 0.45 -1.05l6.2 -6.2 -4.4 -4.4 2.15 -2.15c0.56667 -0.5667 1.26667 -0.85 2.1 -0.85 0.8333 0 1.5333 0.2833 2.1 0.85l1 0.95L36 3.7998h8v8Zm-30.1 9.9 -9.9 -9.9v-8h8l9.9 9.9 -8 8Z" stroke-width="1"></path>
</svg>